HIERARCHY
ROOT joint_Root
{
	OFFSET 0.0 0.0 0.0
	CHANNELS 6 Xposition Yposition Zposition Zrotation Xrotation Yrotation 
	JOINT Hips
	{
		OFFSET -0.726466 93.3139 -2.00062
		CHANNELS 6 Xposition Yposition Zposition Zrotation Xrotation Yrotation 
		JOINT Spine
		{
			OFFSET 15.7357 0.0 0.0
			CHANNELS 6 Xposition Yposition Zposition Zrotation Xrotation Yrotation 
			JOINT Chest
			{
				OFFSET 8.98455 -0.406207 0.0
				CHANNELS 6 Xposition Yposition Zposition Zrotation Xrotation Yrotation 
				JOINT Neck
				{
					OFFSET 16.3773 0.0 0.0
					CHANNELS 6 Xposition Yposition Zposition Zrotation Xrotation Yrotation 
					JOINT Head
					{
						OFFSET 6.45672 0.0 0.0
						CHANNELS 6 Xposition Yposition Zposition Zrotation Xrotation Yrotation 
						End Site
						{
							OFFSET 0.0 0.0 0.0
						}
					}
				}
				JOINT Shoulder_L
				{
					OFFSET 12.9942 -0.242716 4.98039
					CHANNELS 6 Xposition Yposition Zposition Zrotation Xrotation Yrotation 
					JOINT UpperArm_L
					{
						OFFSET 5.34809 0.0 0.0
						CHANNELS 6 Xposition Yposition Zposition Zrotation Xrotation Yrotation 
						JOINT LowerArm_L
						{
							OFFSET 24.3286 1.87007e-05 0.0
							CHANNELS 6 Xposition Yposition Zposition Zrotation Xrotation Yrotation 
							JOINT Hand_L
							{
								OFFSET 22.2916 0.0 0.0
								CHANNELS 6 Xposition Yposition Zposition Zrotation Xrotation Yrotation 
								End Site
								{
									OFFSET 0.0 0.0 0.0
								}
							}
						}
					}
				}
				JOINT Shoulder_R
				{
					OFFSET 12.9945 -0.242716 -4.98039
					CHANNELS 6 Xposition Yposition Zposition Zrotation Xrotation Yrotation 
					JOINT UpperArm_R
					{
						OFFSET -5.34813 0.0 0.0
						CHANNELS 6 Xposition Yposition Zposition Zrotation Xrotation Yrotation 
						JOINT LowerArm_R
						{
							OFFSET -24.3289 0.000322201 0.0
							CHANNELS 6 Xposition Yposition Zposition Zrotation Xrotation Yrotation 
							JOINT Hand_R
							{
								OFFSET -22.2915 -0.000108084 0.0
								CHANNELS 6 Xposition Yposition Zposition Zrotation Xrotation Yrotation 
								End Site
								{
									OFFSET 0.0 0.0 0.0
								}
							}
						}
					}
				}
			}
		}
		JOINT UpperLeg_L
		{
			OFFSET -2.19248 -6.46944 0.0
			CHANNELS 6 Xposition Yposition Zposition Zrotation Xrotation Yrotation 
			JOINT LowerLeg_L
			{
				OFFSET 39.0811 0.0 -1.23785e-05
				CHANNELS 6 Xposition Yposition Zposition Zrotation Xrotation Yrotation 
				JOINT Foot_L
				{
					OFFSET 40.9854 0.0 -1.26872e-05
					CHANNELS 6 Xposition Yposition Zposition Zrotation Xrotation Yrotation 
					JOINT Toes_L
					{
						OFFSET 11.7543 0.0 0.0
						CHANNELS 6 Xposition Yposition Zposition Zrotation Xrotation Yrotation 
						End Site
						{
							OFFSET 0.0 0.0 0.0
						}
					}
				}
			}
		}
		JOINT UpperLeg_R
		{
			OFFSET -2.19251 6.46944 0.0
			CHANNELS 6 Xposition Yposition Zposition Zrotation Xrotation Yrotation 
			JOINT LowerLeg_R
			{
				OFFSET -39.0811 -0.00228153 -0.0401928
				CHANNELS 6 Xposition Yposition Zposition Zrotation Xrotation Yrotation 
				JOINT Foot_R
				{
					OFFSET -40.9854 0.0 0.0
					CHANNELS 6 Xposition Yposition Zposition Zrotation Xrotation Yrotation 
					JOINT Toes_R
					{
						OFFSET -11.7543 0.0 0.0
						CHANNELS 6 Xposition Yposition Zposition Zrotation Xrotation Yrotation 
						End Site
						{
							OFFSET 0.0 0.0 0.0
						}
					}
				}
			}
		}
	}
}
MOTION
Frames:	8
Frame Time:	0.0333333
0.000000 0.000000 0.000000 0.000000 0.000000 -0.000000 -158.170000 91.053000 193.749000 76.896900 87.609900 14.515200 15.735700 0.000005 -0.000001 95.393400 81.294500 -94.798600 8.984550 -0.406207 -0.000000 9.562410 1.636280 1.051880 16.377300 -0.000001 -0.000001 6.553940 -2.603250 1.151360 6.456720 -0.000001 -0.000000 -1.219900 -3.915490 -2.046180 12.994200 -0.242716 4.980390 -89.069800 -2.301240 -67.982400 5.348090 -0.000007 -0.000001 -69.723900 26.957000 -2.521820 24.328600 0.000019 0.000005 4.499920 6.320790 -35.557600 22.291600 -0.000001 0.000005 3.531340 5.524830 -7.574770 12.994500 -0.242716 -4.980390 89.105300 2.389020 -69.462000 -5.348130 -0.000001 -0.000004 -54.176100 26.206900 -25.909500 -24.328900 0.000322 -0.000009 3.818970 5.425060 -35.232200 -22.291500 -0.000108 -0.000004 9.227880 5.548820 -8.650340 -2.192480 -6.469440 -0.000000 -176.027000 -10.064400 -26.155000 39.081100 -0.000007 -0.000012 0.088723 -0.067238 52.841800 40.985400 -0.000006 -0.000013 3.930460 -1.686360 -57.602900 11.754300 -0.000000 0.000003 -0.005276 -0.064119 -19.185800 -2.192510 6.469440 -0.000001 178.601000 12.689100 176.024000 -39.081100 -0.002282 -0.040193 0.056049 -0.101132 27.543000 -40.985400 0.000008 0.000006 3.000200 -2.995520 -71.205500 -11.754300 -0.000006 -0.000006 -0.009583 -0.100495 -20.667100
0.000000 0.000000 0.000000 0.000000 0.000000 -0.000000 -155.362000 90.932500 193.739000 83.781400 86.219500 7.498410 15.735700 0.000005 -0.000001 98.876300 81.128200 -98.605900 8.984550 -0.406207 -0.000000 9.766800 2.726030 0.307437 16.377300 -0.000001 -0.000001 5.912500 -2.279040 0.993456 6.456720 -0.000001 -0.000000 -1.618900 -4.212790 -2.029670 12.994200 -0.242716 4.980390 -89.200800 -1.907520 -67.261700 5.348090 -0.000007 -0.000001 -70.021600 24.949600 -0.465053 24.328600 0.000019 0.000005 4.199160 6.471350 -33.082100 22.291600 -0.000001 0.000005 3.729940 5.512950 -7.065300 12.994500 -0.242716 -4.980390 89.229000 2.137010 -70.157800 -5.348130 -0.000001 -0.000004 -52.063500 25.191700 -30.018300 -24.328900 0.000322 -0.000009 3.732630 5.173930 -35.891500 -22.291500 -0.000108 -0.000004 9.503560 5.546010 -8.519330 -2.192480 -6.469440 -0.000000 -176.192000 -10.958900 -26.652900 39.081100 -0.000007 -0.000012 0.054857 -0.063407 40.863600 40.985400 -0.000006 -0.000013 4.072040 -2.254730 -57.899900 11.754300 -0.000000 0.000003 -0.005166 -0.063071 -19.143100 -2.192510 6.469440 -0.000001 177.754000 12.499900 178.873000 -39.081100 -0.002282 -0.040193 0.048267 -0.093770 25.614500 -40.985400 0.000008 0.000006 2.763860 -1.732580 -72.271500 -11.754300 -0.000006 -0.000006 -0.009753 -0.101783 -20.719800
0.000000 0.000000 0.000000 0.000000 0.000000 -0.000000 -152.409000 90.414200 193.688000 80.394500 84.611300 10.698900 15.735700 0.000005 -0.000001 101.848000 80.914300 -101.682000 8.984550 -0.406207 -0.000000 10.028300 3.710690 0.006246 16.377300 -0.000001 -0.000001 5.019400 -1.882200 0.774982 6.456720 -0.000001 -0.000000 -1.873840 -4.316750 -2.159940 12.994200 -0.242716 4.980390 -89.261100 -1.715160 -66.688400 5.348090 -0.000007 -0.000001 -70.328400 23.230800 1.326490 24.328600 0.000019 0.000005 4.237770 7.235770 -30.470000 22.291600 -0.000001 0.000005 3.973720 5.501650 -6.600190 12.994500 -0.242716 -4.980390 89.356600 1.856540 -70.883600 -5.348130 -0.000001 -0.000004 -50.051700 23.988500 -34.169400 -24.328900 0.000322 -0.000009 3.655840 5.019360 -36.147900 -22.291500 -0.000108 -0.000004 9.480510 5.546530 -8.544030 -2.192480 -6.469440 -0.000000 -175.112000 -10.932500 -25.879900 39.081100 -0.000007 -0.000012 0.026058 -0.051245 26.952600 40.985400 -0.000006 -0.000013 3.251490 -2.836030 -56.532000 11.754300 -0.000000 0.000003 -0.004532 -0.056872 -18.890500 -2.192510 6.469440 -0.000001 177.445000 11.988600 -178.771000 -39.081100 -0.002282 -0.040193 0.043365 -0.086735 24.786600 -40.985400 0.000008 0.000006 2.422760 -0.702904 -74.081400 -11.754300 -0.000006 -0.000006 -0.009876 -0.102710 -20.757700
0.000000 0.000000 0.000000 0.000000 0.000000 -0.000000 -149.115000 89.569400 193.523000 74.912700 82.836900 16.045600 15.735700 0.000005 -0.000001 104.654000 80.734200 -104.411000 8.984550 -0.406207 -0.000000 10.177700 4.662720 0.069386 16.377300 -0.000001 -0.000001 4.254350 -1.541430 0.644567 6.456720 -0.000001 -0.000000 -2.037040 -4.248100 -2.364660 12.994200 -0.242716 4.980390 -89.192900 -1.836950 -66.274900 5.348090 -0.000007 -0.000001 -70.967900 21.728200 3.082310 24.328600 0.000019 0.000005 4.409710 8.413350 -27.794300 22.291600 -0.000001 0.000005 3.972050 5.488840 -6.090470 12.994500 -0.242716 -4.980390 89.479200 1.546900 -71.391300 -5.348130 -0.000001 -0.000004 -48.288500 22.949200 -37.867600 -24.328900 0.000322 -0.000009 3.598370 4.923340 -36.240200 -22.291500 -0.000108 -0.000004 9.332200 5.546860 -8.559060 -2.192480 -6.469440 -0.000000 -172.926000 -9.839700 -24.610800 39.081100 -0.000007 -0.000012 0.003062 -0.011878 14.458100 40.985400 -0.000006 -0.000013 3.336820 -3.751010 -56.927800 11.754300 -0.000000 0.000003 -0.004433 -0.055878 -18.850000 -2.192510 6.469440 -0.000001 177.135000 12.086100 -176.364000 -39.081100 -0.002282 -0.040193 0.029702 -0.057633 24.602000 -40.985400 0.000008 0.000006 1.915720 1.106770 -76.278600 -11.754300 -0.000006 -0.000006 -0.009354 -0.098745 -20.595600
0.000000 0.000000 0.000000 0.000000 0.000000 -0.000000 -145.405000 88.555900 193.158000 74.092800 80.963000 16.739400 15.735700 0.000005 -0.000001 107.238000 80.596400 -107.062000 8.984550 -0.406207 -0.000000 10.223000 5.540590 -0.145212 16.377300 -0.000001 -0.000001 3.830980 -1.232310 0.629218 6.456720 -0.000001 -0.000000 -2.170230 -4.041970 -2.555700 12.994200 -0.242716 4.980390 -89.084800 -2.068060 -66.122200 5.348090 -0.000007 -0.000001 -71.633100 20.276400 4.567090 24.328600 0.000019 0.000005 4.512000 9.736440 -25.015500 22.291600 -0.000001 0.000005 3.899350 5.470160 -5.375660 12.994500 -0.242716 -4.980390 89.521400 1.457810 -71.822800 -5.348130 -0.000001 -0.000004 -46.661600 22.217100 -40.975500 -24.328900 0.000322 -0.000009 3.559900 4.879330 -36.190700 -22.291500 -0.000108 -0.000004 9.529500 5.542700 -8.366540 -2.192480 -6.469440 -0.000000 -172.252000 -11.380500 -24.293500 39.081100 -0.000007 -0.000012 0.000021 -0.000175 7.009200 40.985400 -0.000006 -0.000013 2.326500 -3.394470 -58.238100 11.754300 -0.000000 0.000003 -0.004572 -0.057267 -18.906600 -2.192510 6.469440 -0.000001 176.108000 11.960900 -174.074000 -39.081100 -0.002282 -0.040193 0.013523 -0.021917 24.980600 -40.985400 0.000008 0.000006 1.273260 2.802300 -78.267200 -11.754300 -0.000006 -0.000006 -0.008640 -0.093178 -20.368000
0.000000 0.000000 0.000000 0.000000 0.000000 -0.000000 -141.294000 87.511200 192.538000 75.399500 79.306300 15.229300 15.735700 0.000005 -0.000001 109.321000 80.582700 -109.377000 8.984550 -0.406207 -0.000000 10.054000 6.191070 -0.656678 16.377300 -0.000001 -0.000001 3.751580 -0.927884 0.674167 6.456720 -0.000001 -0.000000 -2.161600 -3.864820 -2.534360 12.994200 -0.242716 4.980390 -89.052500 -2.125620 -65.968900 5.348090 -0.000007 -0.000001 -71.864400 18.956300 5.629690 24.328600 0.000019 0.000005 4.423650 10.777400 -22.476900 22.291600 -0.000001 0.000005 3.411180 5.456910 -4.887930 12.994500 -0.242716 -4.980390 89.485700 1.593800 -72.112200 -5.348130 -0.000001 -0.000004 -45.724800 21.743400 -43.097200 -24.328900 0.000322 -0.000009 3.485440 4.799070 -36.064100 -22.291500 -0.000108 -0.000004 9.532050 5.538840 -8.190010 -2.192480 -6.469440 -0.000000 -173.086000 -14.337000 -25.936800 39.081100 -0.000007 -0.000012 0.000328 -0.002613 7.169380 40.985400 -0.000006 -0.000013 -0.126120 -2.986620 -58.555600 11.754300 -0.000000 0.000003 -0.004632 -0.057863 -18.930900 -2.192510 6.469440 -0.000001 174.691000 10.735100 -172.405000 -39.081100 -0.002282 -0.040193 -0.001523 0.009799 26.251100 -40.985400 0.000008 0.000006 0.369396 3.671260 -78.880800 -11.754300 -0.000006 -0.000006 -0.010840 -0.109811 -21.048200
0.000000 0.000000 0.000000 0.000000 0.000000 -0.000000 -136.887000 86.719400 191.630000 80.496600 78.501000 9.569650 15.735700 0.000005 -0.000001 109.772000 80.789700 -110.386000 8.984550 -0.406207 -0.000000 9.643670 6.184760 -1.748580 16.377300 -0.000001 -0.000001 4.104740 -0.681880 0.725139 6.456720 -0.000001 -0.000000 -2.451420 -3.760510 -2.354170 12.994200 -0.242716 4.980390 -89.307500 -1.549450 -65.914000 5.348090 -0.000007 -0.000001 -71.351400 17.350800 6.003220 24.328600 0.000019 0.000005 4.505890 12.239200 -20.392300 22.291600 -0.000001 0.000005 3.286560 5.444250 -4.435870 12.994500 -0.242716 -4.980390 89.308100 2.190780 -72.466200 -5.348130 -0.000001 -0.000004 -45.360400 21.369800 -43.906500 -24.328900 0.000322 -0.000009 3.548800 4.854530 -36.244000 -22.291500 -0.000108 -0.000004 9.527910 5.537410 -8.125610 -2.192480 -6.469440 -0.000000 -174.378000 -15.107400 -32.385300 39.081100 -0.000007 -0.000012 0.056553 -0.164970 18.922100 40.985400 -0.000006 -0.000013 -2.443140 -2.735180 -53.910600 11.754300 -0.000000 0.000003 -0.005704 -0.068133 -19.349500 -2.192510 6.469440 -0.000001 172.233000 9.447640 -171.754000 -39.081100 -0.002282 -0.040193 -0.040338 0.081488 28.172600 -40.985400 0.000008 0.000006 -0.459702 4.161140 -76.656200 -11.754300 -0.000006 -0.000006 -1.947750 -2.021640 -24.821600
0.000000 0.000000 0.000000 0.000000 0.000000 -0.000000 -131.934000 86.116600 190.497000 87.669800 77.584700 2.010790 15.735700 0.000005 -0.000001 110.090000 81.034200 -111.486000 8.984550 -0.406207 -0.000000 9.189690 6.108990 -3.284060 16.377300 -0.000001 -0.000001 4.439950 -0.497254 0.876572 6.456720 -0.000001 -0.000000 -2.609260 -3.785500 -2.009390 12.994200 -0.242716 4.980390 -89.677300 -0.716051 -65.738200 5.348090 -0.000007 -0.000001 -70.476300 15.238900 6.075560 24.328600 0.000019 0.000005 4.443240 12.978200 -19.085800 22.291600 -0.000001 0.000005 3.646500 5.437400 -4.192700 12.994500 -0.242716 -4.980390 89.033400 3.104490 -72.695600 -5.348130 -0.000001 -0.000004 -45.399700 21.586300 -42.972600 -24.328900 0.000322 -0.000009 3.869650 5.070900 -37.432600 -22.291500 -0.000108 -0.000004 9.533420 5.534620 -8.000330 -2.192480 -6.469440 -0.000000 -175.323000 -13.014600 -35.288900 39.081100 -0.000007 -0.000012 0.033962 -0.067691 26.643800 40.985400 -0.000006 -0.000013 -3.006250 -2.519200 -45.603400 11.754300 -0.000000 0.000003 -0.006624 -0.076412 -19.687200 -2.192510 6.469440 -0.000001 168.959000 7.917620 -171.297000 -39.081100 -0.002282 -0.040193 -0.065387 0.115492 30.741500 -40.985400 0.000008 0.000006 -0.661856 4.558040 -73.072200 -11.754300 -0.000006 -0.000006 -0.639490 -0.766180 -28.682600
